<svg xmlns="http://www.w3.org/2000/svg" viewBox="0 0 100 100" width="128" height="128" fill="none">
  <!-- Leaf Stem -->
  <path d="M 50,90 L 50,78" stroke="#9a3412" stroke-width="2.5" stroke-linecap="round" />
  
  <!-- Leaf Body outline -->
  <path d="M 50,78 
           C 40,75 30,78 20,80 
           C 26,70 24,62 18,56 
           C 25,54 25,46 18,40 
           C 28,42 28,34 20,28 
           C 30,32 34,26 32,18 
           C 38,24 42,22 44,14 
           C 46,22 48,24 50,20 
           C 52,24 54,22 56,14 
           C 58,22 62,24 68,18 
           C 66,26 70,32 80,28 
           C 72,34 72,42 82,40 
           C 75,46 75,54 82,56 
           C 76,62 74,70 80,80 
           C 70,78 60,75 50,78 Z"
        fill="url(#autumn-gradient)" 
        stroke="#c2410c" 
        stroke-width="1.2" 
        stroke-linejoin="round" 
        stroke-linecap="round" />
        
  <!-- Leaf veins for realistic detail -->
  <path d="M 50,78 L 50,28
           M 50,68 Q 42,60 32,58
           M 50,68 Q 58,60 68,58
           M 50,56 Q 42,48 30,42
           M 50,56 Q 58,48 70,42
           M 50,42 Q 44,36 34,32
           M 50,42 Q 56,36 66,32" 
        stroke="#7c2d12" 
        stroke-width="0.8" 
        stroke-linecap="round" />
        
  <defs>
    <linearGradient id="autumn-gradient" x1="0" y1="1" x2="0" y2="0">
      <stop offset="0%" stop-color="#b91c1c" />
      <stop offset="40%" stop-color="#ea580c" />
      <stop offset="80%" stop-color="#fbbf24" />
      <stop offset="100%" stop-color="#eab308" />
    </linearGradient>
  </defs>
</svg>
